Coordinates
version=1
nRows=65
nColumns=12
inDegrees=yes

Units are S.I. units (second, meters, Newtons, ...)
Angles are in degrees

endheader
time	SC_y	SC_z	SC_x	AC_y	AC_z	AC_x	GH_y	GH_z	GH_yy	EL_x	PS_y
       0.0              -47.38          15.46          24.58          58.69          4.159        -0.4551          176.7           18.9         -27.43          19.15          44.07
   0.01617              -47.38          15.46          24.59          58.69          4.158        -0.4548          176.6           18.9          -27.4          19.16          44.07
   0.03235              -47.38          15.46          24.59          58.69          4.157        -0.4545          176.6           18.9         -27.37          19.18          44.07
   0.04852              -47.38          15.47           24.6          58.68          4.156        -0.4542          176.5          18.91         -27.34           19.2          44.07
    0.0647              -47.38          15.47          24.61          58.68          4.155        -0.4539          176.5          18.91         -27.31          19.22          44.06
   0.08087              -47.38          15.47          24.62          58.67          4.154        -0.4535          176.4          18.91         -27.27          19.24          44.06
   0.09705              -47.38          15.48          24.63          58.67          4.153        -0.4531          176.3          18.92         -27.23          19.26          44.06
    0.1132              -47.38          15.48          24.64          58.66          4.151        -0.4527          176.3          18.92         -27.19          19.29          44.06
    0.1294              -47.37          15.49          24.65          58.65           4.15        -0.4523          176.2          18.93         -27.15          19.31          44.05
    0.1456              -47.37          15.49          24.67          58.65          4.148        -0.4518          176.1          18.93          -27.1          19.34          44.05
    0.1617              -47.37           15.5          24.68          58.64          4.146        -0.4513          176.0          18.94         -27.05          19.37          44.05
    0.1779              -47.37           15.5          24.69          58.63          4.144        -0.4507          175.9          18.94          -27.0           19.4          44.05
    0.1941              -47.37          15.51          24.71          58.62          4.142        -0.4501          175.8          18.95         -26.94          19.44          44.04
    0.2103              -47.37          15.51          24.73          58.61           4.14        -0.4495          175.7          18.95         -26.87          19.47          44.04
    0.2264              -47.37          15.52          24.74           58.6          4.138        -0.4488          175.6          18.96          -26.8          19.52          44.04
    0.2426              -47.36          15.53          24.76          58.59          4.135        -0.4481          175.5          18.97         -26.73          19.56          44.03
    0.2588              -47.36          15.54          24.78          58.58          4.133        -0.4473          175.4          18.98         -26.65          19.61          44.03
     0.275              -47.36          15.55          24.81          58.57           4.13        -0.4464          175.2          18.98         -26.56          19.66          44.02
    0.2911              -47.36          15.56          24.83          58.56          4.126        -0.4454          175.1          18.99         -26.46          19.72          44.02
    0.3073              -47.36          15.57          24.86          58.54          4.123        -0.4443          174.9           19.0         -26.36          19.78          44.01
    0.3235              -47.35          15.58          24.89          58.52          4.119        -0.4432          174.7          19.02         -26.24          19.85          44.01
    0.3397              -47.35          15.59          24.93          58.51          4.114        -0.4419          174.5          19.03         -26.11          19.92           44.0
    0.3558              -47.35           15.6          24.96          58.49           4.11        -0.4405          174.3          19.04         -25.97           20.0          43.99
     0.372              -47.34          15.62           25.0          58.46          4.104        -0.4389          174.0          19.06         -25.82           20.1          43.98
    0.3882              -47.34          15.64          25.05          58.44          4.098        -0.4372          173.8          19.08         -25.64           20.2          43.97
    0.4044              -47.33          15.66           25.1          58.41          4.092        -0.4352          173.4          19.09         -25.45          20.31          43.96
    0.4205              -47.33          15.68          25.16          58.38          4.084         -0.433          173.1          19.12         -25.23          20.44          43.95
    0.4367              -47.32           15.7          25.22          58.34          4.076        -0.4306          172.7          19.14         -24.99          20.59          43.94
    0.4529              -47.31          15.73          25.29           58.3          4.066        -0.4278          172.2          19.17         -24.71          20.75          43.92
    0.4691              -47.31          15.76          25.38          58.26          4.056        -0.4247          171.7           19.2          -24.4          20.93           43.9
    0.4852               -47.3           15.8          25.47          58.21          4.043        -0.4211          171.2          19.23         -24.04          21.14          43.89
    0.5014              -47.29          15.84          25.58          58.15          4.029         -0.417          170.5          19.27         -23.63          21.38          43.86
    0.5176              -47.28          15.89           25.7          58.08          4.013        -0.4122          169.7          19.32         -23.15          21.66          43.84
    0.5338              -47.26          15.94          25.85           58.0          3.994        -0.4067          168.8          19.38          -22.6          21.99          43.81
    0.5499              -47.25          16.01          26.02          57.91          3.972        -0.4002          167.8          19.44         -21.95          22.37          43.77
    0.5661              -47.23          16.08          26.22           57.8          3.946        -0.3926          166.5          19.51         -21.19          22.82          43.73
    0.5823              -47.21          16.17          26.45          57.67          3.916        -0.3836          165.1           19.6         -20.29          23.35          43.68
    0.5985              -47.18          16.28          26.74          57.52          3.879        -0.3727          163.3          19.71         -19.21          23.98          43.62
    0.6146              -47.15          16.41          27.08          57.33          3.834        -0.3596          161.2          19.84         -17.89          24.76          43.55
    0.6308              -47.11          16.58           27.5           57.1          3.779        -0.3435          158.6           20.0         -16.29           25.7          43.46
     0.647              -47.06          16.77          28.02          56.81          3.712        -0.3237          155.4          20.19         -14.32          26.86          43.35
    0.6632               -47.0          17.02          28.67          56.46          3.627        -0.2991          151.4          20.44         -11.85          28.31          43.22
    0.6793              -46.92          17.33          29.49          56.02          3.521         -0.268          146.4          20.74         -8.747          30.14          43.05
    0.6955              -46.83          17.73          30.52          55.45          3.387        -0.2284          140.0          21.13           -4.8          32.46          42.84
    0.7117               -46.7          18.23          31.85          54.73          3.214        -0.1778          131.8          21.63         0.2523          35.43          42.56
    0.7279              -46.54          18.88          33.55           53.8          2.993        -0.1129          121.3          22.27          6.736          39.24          42.21
     0.744              -46.34          19.72          35.73          52.61           2.71       -0.02995          107.9          23.09          15.02          44.11          41.75
    0.7602              -46.09          20.76          38.46          51.12          2.355        0.07434          91.04          24.11          25.43          50.24          41.19
    0.7764              -45.78          22.03          41.79           49.3          1.922         0.2014          70.49          25.37          38.12           57.7          40.49
    0.7926              -45.41          23.51          45.66          47.19          1.419         0.3487          46.67          26.82          52.83          66.36          39.69
    0.8087              -45.02          25.11          49.84          44.91         0.8758         0.5083          20.88          28.39          68.76          75.72          38.82
    0.8249              -44.63           26.7          54.02          42.63         0.3321         0.6678         -4.915          29.96          84.68          85.09          37.95
    0.8411              -44.27          28.18          57.88          40.52          -0.17         0.8151         -28.74          31.41          99.39          93.74          37.15
    0.8573              -43.96          29.45          61.22           38.7        -0.6032         0.9422         -49.29          32.66          112.1          101.2          36.46
    0.8734              -43.71           30.5          63.95          37.21        -0.9587          1.046         -66.15          33.69          122.5          107.3          35.89
    0.8896               -43.5          31.33          66.13          36.02         -1.241          1.129         -79.56          34.51          130.8          112.2          35.44
    0.9058              -43.35          31.98          67.83          35.09         -1.463          1.194         -90.06          35.15          137.3          116.0          35.09
     0.922              -43.22          32.48          69.16          34.37         -1.635          1.245         -98.24          35.65          142.3          119.0          34.81
    0.9381              -43.13          32.88          70.19           33.8          -1.77          1.284         -104.6          36.03          146.3          121.3           34.6
    0.9543              -43.05          33.19          71.01          33.36         -1.876          1.316         -109.7          36.34          149.4          123.1          34.43
    0.9705              -42.99          33.44          71.66           33.0          -1.96           1.34         -113.7          36.58          151.8          124.6          34.29
    0.9867              -42.94          33.64          72.17          32.72         -2.028           1.36         -116.9          36.78          153.8          125.8          34.18
     1.003               -42.9           33.8           72.6          32.49         -2.082          1.376         -119.4          36.94          155.4          126.7           34.1
     1.019              -42.87          33.93          72.94           32.3         -2.127          1.389         -121.6          37.07          156.7          127.5          34.02
     1.035              -42.84          34.04          73.22          32.15         -2.164            1.4         -123.3          37.17          157.8          128.1          33.97
